<svg viewBox="0 0 44 54" fill="none" xmlns="http://www.w3.org/2000/svg">
  <path
    d="M28.6529 10.6112C27.6695 10.6112 26.7082 10.3195 25.8905 9.77319C25.0728 9.22683 24.4355 8.45027 24.0592 7.54171C23.6828 6.63315 23.5844 5.6334 23.7762 4.66888C23.9681 3.70436 24.4416 2.81839 25.137 2.123C25.8324 1.42762 26.7184 0.954062 27.6829 0.762207C28.6474 0.570351 29.6472 0.668819 30.5557 1.04516C31.4643 1.42149 32.2408 2.0588 32.7872 2.87648C33.3336 3.69416 33.6252 4.6555 33.6252 5.63892C33.6252 6.95764 33.1013 8.22235 32.1688 9.15483C31.2364 10.0873 29.9716 10.6112 28.6529 10.6112Z"
    fill="currentColor"
  />
  <path
    d="M40.2548 23.8508H35.6969L32.9974 18.3399C31.7026 15.6953 29.3252 13.7613 26.5977 13.0673L19.2315 10.8784C17.7919 10.5292 16.2923 10.5073 14.8431 10.8142C13.3939 11.1211 12.0319 11.7491 10.8574 12.6519L6.74805 15.7999C6.39142 16.0597 6.09024 16.3881 5.86217 16.7658C5.6341 17.1434 5.48372 17.5629 5.41986 17.9994C5.35599 18.436 5.37993 18.8809 5.49025 19.3081C5.60058 19.7353 5.79508 20.1362 6.06235 20.4873C6.32962 20.8383 6.66428 21.1325 7.04671 21.3525C7.42915 21.5725 7.85166 21.714 8.28948 21.7686C8.7273 21.8232 9.17162 21.7899 9.59639 21.6705C10.0212 21.5512 10.4179 21.3482 10.7632 21.0736L10.7818 21.0601L14.8932 17.9121C15.6878 17.303 16.6998 17.0834 17.5109 17.2771L19.0337 17.7287L15.1533 26.771C14.5236 28.2515 14.4529 29.9102 14.9544 31.4389C15.4559 32.9675 16.4954 34.2621 17.8797 35.0819L26.6847 40.2748L23.8392 49.3533C23.5764 50.1851 23.6521 51.087 24.0499 51.8633C24.4476 52.6397 25.1354 53.228 25.9641 53.5006C26.7927 53.7732 27.6954 53.7082 28.4764 53.3197C29.2575 52.9312 29.8539 52.2504 30.1363 51.425C30.1467 51.394 30.156 51.3629 30.1653 51.3318L33.4387 40.8694C33.735 39.815 33.676 38.6924 33.2709 37.6749C32.8658 36.6574 32.137 35.8015 31.197 35.2393L24.8533 31.4988L28.0966 23.3971L30.1964 27.6846C30.6078 28.5187 31.2434 29.2216 32.032 29.7146C32.8207 30.2075 33.731 30.4709 34.661 30.4753H40.2548C40.7008 30.4929 41.1458 30.4203 41.563 30.2618C41.9803 30.1033 42.3612 29.8622 42.683 29.5529C43.0048 29.2436 43.2608 28.8724 43.4356 28.4618C43.6105 28.0511 43.7007 27.6094 43.7007 27.1631C43.7007 26.7167 43.6105 26.275 43.4356 25.8643C43.2608 25.4537 43.0048 25.0826 42.683 24.7732C42.3612 24.4639 41.9803 24.2228 41.563 24.0643C41.1458 23.9058 40.7008 23.8332 40.2548 23.8508Z"
    fill="currentColor"
  />
  <path
    opacity="0.4"
    d="M12.2538 33.526L12.2533 33.5272C13.0837 35.3648 14.4573 36.9037 16.1891 37.9368L17.2944 38.5894L16.3839 40.713C16.0015 41.6076 15.3644 42.37 14.5519 42.9052C13.7395 43.4405 12.7875 43.7249 11.8146 43.7232H3.79165C3.34468 43.7426 2.8984 43.6713 2.47973 43.5136C2.06105 43.3559 1.67864 43.1151 1.3555 42.8057C1.03237 42.4962 0.775227 42.1246 0.599552 41.7131C0.423878 41.3017 0.333313 40.8589 0.333313 40.4115C0.333313 39.9641 0.423878 39.5214 0.599552 39.1099C0.775227 38.6984 1.03237 38.3268 1.3555 38.0174C1.67864 37.7079 2.06105 37.4671 2.47973 37.3094C2.8984 37.1517 3.34468 37.0804 3.79165 37.0998H10.7207L12.2533 33.5272C12.2531 33.5268 12.253 33.5264 12.2528 33.526H12.2538Z"
    fill="currentColor"
  />
</svg>
